<?xml version="1.0" encoding="utf-8"?>
<!-- Generator: Adobe Illustrator 27.0.0, SVG Export Plug-In . SVG Version: 6.00 Build 0)  -->
<svg version="1.1" id="Capa_1" xmlns="http://www.w3.org/2000/svg" xmlns:xlink="http://www.w3.org/1999/xlink" x="0px" y="0px"
	 viewBox="0 0 1080 1080" style="enable-background:new 0 0 1080 1080;" xml:space="preserve">
<style type="text/css">
	.st0{fill:#FFFFFF;}
</style>
<path class="st0" d="M386.48,559.1c0,2.13,0,3.55,0,4.98c-3.08,40.76-14.93,78.2-33.65,112.79c-12.32,22.98-27.25,43.36-43.6,62.79
	c-2.13,2.61-2.37,7.11-3.32,10.66c3.55,0.71,6.87,1.42,10.43,1.9c0.95,0,2.13-0.95,3.32-1.66c6.4-4.03,13.27-7.82,19.67-12.08
	c38.86-25.59,71.8-59.48,101.89-97.15c52.37-65.16,72.51-142.17,63.03-229.61c-3.79-33.17-15.64-63.03-36.02-87.44
	c-26.78-31.99-60.19-42.18-97.63-36.96c-29.86,4.27-55.45,18.01-74.64,45.02c-21.33,29.86-28.91,64.93-27.01,102.6
	c2.61,51.89,25.59,88.62,66.11,111.13c16.11,9,33.17,12.08,51.18,13.03H386.48z"/>
<path class="st0" d="M670.59,561.47c-1.42,25.12-6.63,50.47-15.4,74.64c-13.74,38.15-34.36,71.09-59.71,100.47
	c-3.32,4.03-9,8.29-5.21,14.22c3.79,5.92,9.95,2.37,14.22-0.71c18.72-13.03,38.15-25.35,55.68-40.05
	c31.52-26.3,59.24-57.58,82.93-92.89c29.15-43.36,43.84-93.36,47.15-147.62c1.9-31.51,0.24-62.56-9.72-92.65
	c-19.43-58.76-58.76-91.46-109.95-90.75c-35.78,0.71-66.82,13.98-90.04,46.21c-18.01,24.88-25.35,54.5-27.25,86.25
	c-3.32,58.53,25.12,110.18,72.98,130.56c13.98,5.92,29.15,8.06,44.55,12.32H670.59z"/>
</svg>
