<?xml version="1.0" encoding="utf-8"?>
<!-- Generator: Adobe Illustrator 27.0.0, SVG Export Plug-In . SVG Version: 6.00 Build 0)  -->
<svg version="1.1" id="Capa_1" xmlns="http://www.w3.org/2000/svg" xmlns:xlink="http://www.w3.org/1999/xlink" x="0px" y="0px"
	 viewBox="0 0 1080 1080" style="enable-background:new 0 0 1080 1080;" xml:space="preserve">
<style type="text/css">
	.st0{fill:#FFFFFF;}
</style>
<path class="st0" d="M673.36,559.1c18.01-0.95,35.07-4.03,51.18-13.03c40.52-22.51,63.5-59.24,66.11-111.13
	c1.9-37.68-5.69-72.75-27.01-102.6c-19.19-27.01-44.78-40.76-74.64-45.02c-37.44-5.21-70.85,4.98-97.63,36.96
	c-20.38,24.41-32.23,54.26-36.02,87.44c-9.48,87.44,10.66,164.45,63.03,229.61c30.09,37.68,63.03,71.56,101.89,97.15
	c6.4,4.27,13.27,8.06,19.67,12.08c1.18,0.71,2.37,1.66,3.32,1.66c3.55-0.47,6.87-1.18,10.43-1.9c-0.95-3.55-1.18-8.06-3.32-10.66
	c-16.35-19.43-31.28-39.81-43.6-62.79c-18.72-34.6-30.57-72.03-33.65-112.79c0-1.42,0-2.84,0-4.98H673.36z"/>
<path class="st0" d="M388.78,561.47c15.4-4.27,30.57-6.4,44.55-12.32c47.86-20.38,76.3-72.03,72.98-130.56
	c-1.9-31.75-9.24-61.37-27.25-86.25c-23.22-32.23-54.26-45.5-90.04-46.21c-51.18-0.71-90.52,31.99-109.95,90.75
	c-9.95,30.09-11.61,61.13-9.72,92.65c3.32,54.26,18.01,104.26,47.15,147.62c23.7,35.31,51.42,66.58,82.93,92.89
	c17.53,14.69,36.96,27.01,55.68,40.05c4.27,3.08,10.43,6.63,14.22,0.71c3.79-5.92-1.9-10.19-5.21-14.22
	c-25.35-29.38-45.97-62.32-59.71-100.47c-8.77-24.17-13.98-49.52-15.4-74.64H388.78z"/>
</svg>
